PathFileType	4	(X/Y/Z)	./resultDataOpenSim/trcMotMarkerGrf/sub09/qtm-04-06.trc
DataRate	CameraRate	NumFrames	NumMarkers	Units	OrigDataRate	OrigDataStartFrame	OrigNumFrames
250.000000	250.000000	11	24	m	250.000000	443	506
Frame#	Time	L.Toe.Tip			R.Toe.Tip			L.Ankle.Lat			R.Ankle.Lat			L.Ankle.Med			R.Ankle.Med			L.Heel			R.Heel			L.Knee.Lat			R.Knee.Lat			L.Knee.Med			R.Knee.Med			L.Thigh.Upper			R.Thigh.Upper			L.ASIS			R.ASIS			V.Sacral			L.Acromium			R.Acromium			C7			L.Elbow			R.Elbow			L.Wrist.Lat			R.Wrist.Lat
		X1	Y1	Z1	X2	Y2	Z2	X3	Y3	Z3	X4	Y4	Z4	X5	Y5	Z5	X6	Y6	Z6	X7	Y7	Z7	X8	Y8	Z8	X9	Y9	Z9	X10	Y10	Z10	X11	Y11	Z11	X12	Y12	Z12	X13	Y13	Z13	X14	Y14	Z14	X15	Y15	Z15	X16	Y16	Z16	X17	Y17	Z17	X18	Y18	Z18	X19	Y19	Z19	X20	Y20	Z20	X21	Y21	Z21	X22	Y22	Z22	X23	Y23	Z23	X24	Y24	Z24

443	1.768	1.8718186	0.086317707	0.0035763435	1.1438963	0.04128238	0.095676882	1.7161623	0.074879934	-0.027706741	1.0152236	0.10236335	0.13504292	1.7386898	0.10185715	0.065109952	1.0412561	0.13818762	0.046259843	1.6642118	0.021503211	0.023906375	0.94293524	0.11046527	0.080965402	1.6005045	0.47615647	-0.072251894	1.2799356	0.48187979	0.2084581	1.6029871	0.47155584	0.054698127	1.2710045	0.47375586	0.079592452	1.4313299	0.85531966	-0.11462292	1.3498301	0.8760404	0.24857252	1.4930733	0.94671243	-0.045280298	1.4677969	0.9553638	0.19549276	1.3124377	0.99862621	0.047489526	1.43886	1.4040687	-0.10688864	1.4235222	1.4148221	0.22599083	1.3594639	1.455774	0.056750121	1.2815643	1.0735423	-0.16455896	1.3126019	1.0555228	0.30350688	1.3706092	0.83339122	-0.2195411	1.5266668	0.87846021	0.28568939
444	1.772	1.8757546	0.08050555	0.005312617	1.1442284	0.04138653	0.095439631	1.7192719	0.074325791	-0.027266078	1.0186805	0.10468594	0.13652244	1.7421253	0.10072525	0.065648486	1.0433215	0.13990256	0.047084433	1.6656411	0.0230966	0.0243524	0.94464454	0.1136952	0.081776272	1.6064394	0.47538165	-0.072393792	1.2863663	0.48068028	0.20884972	1.6092612	0.47100873	0.054452071	1.2778037	0.47232172	0.080184191	1.4373372	0.85497352	-0.11548141	1.3561937	0.87473488	0.24784402	1.4992317	0.94623032	-0.04559987	1.4742811	0.95412985	0.19517506	1.3185608	0.99783408	0.047078983	1.4444532	1.4031063	-0.10720052	1.4288477	1.4136959	0.22577523	1.3647565	1.4548171	0.056409914	1.2875361	1.0724044	-0.16491064	1.318027	1.0543886	0.30283388	1.3767643	0.83226779	-0.21960031	1.5311704	0.8764671	0.28609316
445	1.776	1.8801926	0.075330745	0.0069452566	1.1445804	0.041537242	0.095455918	1.7229793	0.074153981	-0.027110003	1.0230332	0.10727022	0.13829338	1.7460676	0.099823632	0.065895285	1.0455465	0.14166076	0.047982259	1.6675044	0.025247418	0.024626784	0.94649794	0.11709488	0.082747316	1.6123462	0.47495842	-0.072648764	1.2929927	0.47945328	0.20921124	1.6153223	0.47067325	0.054166734	1.2849335	0.47087069	0.08086534	1.4432472	0.85467519	-0.11637365	1.3626238	0.87337304	0.24713566	1.5052808	0.94591273	-0.045981753	1.4808528	0.95289134	0.19481141	1.3246105	0.99717247	0.046779331	1.4500483	1.4022024	-0.1075334	1.4341871	1.4126149	0.2255701	1.3701167	1.4540262	0.056062439	1.2935752	1.0712551	-0.16525906	1.3234088	1.0532638	0.30216637	1.3830034	0.83115349	-0.2196365	1.5356298	0.87447253	0.28652086
446	1.78	1.8844302	0.070885368	0.0084278878	1.14496	0.041733886	0.095727597	1.7269567	0.074016458	-0.027208299	1.0272543	0.1099149	0.14003047	1.7499491	0.098980776	0.065902563	1.0479481	0.14346405	0.048959611	1.6695533	0.02740828	0.02450681	0.94851307	0.12067332	0.083890447	1.6183019	0.47495518	-0.073035547	1.2998565	0.47817995	0.20955715	1.6212075	0.4707076	0.053876867	1.2921502	0.46930542	0.081460026	1.4490771	0.85447749	-0.11728411	1.3691042	0.87195201	0.24648269	1.5112378	0.94575761	-0.046456062	1.4874773	0.95166863	0.194399	1.3306304	0.99662447	0.046656033	1.4556475	1.4013774	-0.10787421	1.4395348	1.4115951	0.22538698	1.3755896	1.45339	0.055735499	1.2996853	1.0701065	-0.16560313	1.3287627	1.0521602	0.30147222	1.389324	0.83005684	-0.21964775	1.5400412	0.87247824	0.28697367
447	1.784	1.8880442	0.066831908	0.0099025707	1.1453653	0.041966446	0.096292048	1.730912	0.073753597	-0.027481352	1.0296611	0.11231655	0.14116676	1.7534007	0.098175809	0.065736825	1.0505128	0.14534445	0.050014604	1.6715665	0.02925798	0.023872428	0.95072584	0.1244321	0.085149086	1.6244206	0.47536964	-0.073539507	1.3069251	0.47688945	0.20991604	1.6269718	0.47120333	0.053579075	1.2992575	0.46761824	0.081847598	1.4548413	0.85445892	-0.11819179	1.3755843	0.870484	0.24590633	1.5171206	0.94576535	-0.0470209	1.4940948	0.9504847	0.19393807	1.3366253	0.99615827	0.046675262	1.4612576	1.4006482	-0.10820718	1.444889	1.4106605	0.22522736	1.3811601	1.4528832	0.055437226	1.3058705	1.0689862	-0.16594141	1.3341346	1.0511131	0.30074581	1.3957171	0.82899257	-0.21962764	1.5444011	0.87048537	0.28744736
448	1.788	1.8909738	0.062686218	0.011565661	1.1457919	0.042218162	0.097165772	1.7346363	0.073367786	-0.0278585	1.0296166	0.11439322	0.14146848	1.7563388	0.097419986	0.06547288	1.0532133	0.14735171	0.051132915	1.6733859	0.030730149	0.022731221	0.95318677	0.12837385	0.086429852	1.6308305	0.47614299	-0.07410055	1.3141846	0.47562042	0.21031327	1.6326726	0.47213304	0.053227069	1.3062852	0.46587723	0.082066702	1.4605582	0.85469107	-0.11906767	1.3820122	0.86898476	0.24541076	1.5229492	0.9459395	-0.047653589	1.5006688	0.94935454	0.1934262	1.3425899	0.99574907	0.046801273	1.4668811	1.4000245	-0.10852242	1.4502492	1.4098329	0.22508127	1.3867623	1.4524868	0.055155558	1.3121346	1.0679285	-0.16627064	1.3396426	1.0501762	0.30000186	1.4021801	0.82797993	-0.21956966	1.5487071	0.86850051	0.28793978
449	1.792	1.8932766	0.058241071	0.013448753	1.1462637	0.042477299	0.098190571	1.7379676	0.072895274	-0.028294602	1.0285113	0.11644213	0.14136451	1.7588265	0.096685289	0.065206206	1.0560647	0.14950893	0.052297537	1.674925	0.031862662	0.02121907	0.95594857	0.13250713	0.087644896	1.6376207	0.4771854	-0.074633901	1.3216732	0.47440136	0.21075921	1.6383812	0.47337323	0.052770926	1.3135984	0.46417275	0.082392129	1.4662488	0.85520666	-0.1198816	1.3884632	0.86745296	0.24498903	1.5287406	0.94627997	-0.048337049	1.507208	0.94828551	0.19285745	1.3485322	0.99536727	0.047038326	1.4725026	1.3995076	-0.10882018	1.4556182	1.4091233	0.22492981	1.392328	1.4521648	0.054882512	1.3184745	1.0669634	-0.16659142	1.3454027	1.0493835	0.29925724	1.4087144	0.82703978	-0.21946783	1.5529552	0.86653671	0.28844849
450	1.796	1.895004	0.053725331	0.015382085	1.1468298	0.042745225	0.099069899	1.7407932	0.072347679	-0.028726495	1.0285461	0.11882419	0.14148926	1.7609185	0.095928465	0.065048224	1.0591489	0.15178761	0.053503757	1.6761656	0.032671984	0.019609481	0.9590522	0.13684049	0.088740319	1.6447824	0.47839296	-0.075054882	1.3294456	0.47324887	0.21125456	1.6441851	0.4747746	0.052211539	1.3215468	0.46256871	0.083091022	1.4719196	0.85598621	-0.12061174	1.3954032	0.86584241	0.24461592	1.5344999	0.94678261	-0.0490578	1.5137329	0.94728341	0.19222706	1.3544385	0.99496321	0.047329574	1.4780953	1.3990943	-0.10910259	1.4609994	1.4085379	0.22475438	1.3978198	1.4518604	0.054623659	1.3248826	1.0661067	-0.16691055	1.3514055	1.0487206	0.29851853	1.4153207	0.82619012	-0.21931895	1.5571415	0.86460493	0.28896965
451	1.8	1.8962724	0.049648427	0.017121163	1.1475142	0.043030751	0.099567391	1.7431045	0.071748367	-0.02902561	1.0306411	0.12158608	0.14208203	1.7625912	0.095124393	0.065109953	1.0625625	0.15413839	0.054755417	1.6771415	0.033152853	0.018209903	0.96252307	0.14137031	0.089708874	1.6521916	0.47965528	-0.075283544	1.3375172	0.47216687	0.21180821	1.6501358	0.47621583	0.051613293	1.329949	0.46106574	0.084053013	1.477547	0.85697423	-0.12124805	1.4037474	0.86407227	0.24425082	1.5402256	0.94743934	-0.049786941	1.5202448	0.94634958	0.19153159	1.360295	0.99450891	0.04761789	1.4836447	1.3987826	-0.10936475	1.4663952	1.4080785	0.22454568	1.4032312	1.4515331	0.054373912	1.3313531	1.065357	-0.16723018	1.3574565	1.0481351	0.29776288	1.4220025	0.82544151	-0.21913064	1.5612628	0.86271086	0.28950165
452	1.804	1.8972808	0.04647551	0.01844118	1.1482956	0.043330417	0.09962586	1.745001	0.071163105	-0.029048418	1.0340498	0.12461653	0.14304414	1.7638339	0.094287876	0.065459877	1.066359	0.15652938	0.056059849	1.6779253	0.033347897	0.017219746	0.96636532	0.14608096	0.090597996	1.6596783	0.4808681	-0.075261866	1.345843	0.47114849	0.21244245	1.6562129	0.47761627	0.051065184	1.3382783	0.45962827	0.084925394	1.483118	0.85810766	-0.12180556	1.413849	0.86218013	0.24392636	1.5459184	0.9482379	-0.050496958	1.526732	0.94547826	0.19076743	1.3661183	0.99403185	0.047936179	1.4891537	1.3985695	-0.1095998	1.4718106	1.4077347	0.22430554	1.4085792	1.4511834	0.054115253	1.3378792	1.0647024	-0.16753955	1.3632484	1.047574	0.29692885	1.4287684	0.82479738	-0.21891645	1.5653168	0.86086776	0.29004213
453	1.808	1.8981969	0.044357141	0.019206369	1.1491295	0.043606445	0.099388543	1.7465996	0.070674216	-0.028750433	1.0377104	0.12795799	0.14425698	1.7647756	0.093487359	0.066071318	1.07055	0.1589461	0.057434701	1.6786128	0.033367099	0.016719763	0.97055023	0.15096629	0.091504092	1.6671177	0.48195008	-0.075000888	1.3543505	0.47017634	0.21317568	1.6623668	0.4789248	0.050634875	1.3463685	0.45821549	0.085601942	1.4887037	0.85932699	-0.12234283	1.4242492	0.86044802	0.24377558	1.5515797	0.949162	-0.051198684	1.5331978	0.94466501	0.18993484	1.3719112	0.99357572	0.048298263	1.4946313	1.3984435	-0.10980686	1.4772505	1.4074812	0.22404422	1.4138891	1.4508392	0.053852612	1.3444419	1.0641323	-0.16781776	1.3686074	1.0470453	0.29597194	1.4356278	0.82425924	-0.21867778	1.5692995	0.85909903	0.29059146
